# xmcd
#
# Track frame offsets: 
#        150
#        31837
#        61134
#        96003
#        129486
#        165180
#        201000
#        235437
#        269167
#        296956
#        325097
#
# Disc length: 4780 seconds
#
# Revision: 0
# Processed by: cddbd v1.5.2PL0 Copyright (c) Steve Scherf et al.
# Submitted via: ExactAudioCopy v1.3
#
DISCID=9b12aa0b
DTITLE=Various Artist - Akella Presents - vol.165 - Long Time Blues  
DTITLE=CD2
DYEAR=2018
DGENRE=Blues
TTITLE0=Tom Killner - Working Man
TTITLE1=Layla Zoe - Weakness
TTITLE2=Kris Pohlmann - Revelation
TTITLE3=David Gogo - Shake My Head
TTITLE4=Mike Zito - Lightening Bug
TTITLE5=Brian Ames With David Danced Collective - No One's Winning Str
TTITLE5=eak Blues
TTITLE6=Rosedale - The Kind Of Man You Are
TTITLE7=Reverend Rusty and The Case - I Can't Escape
TTITLE8=Dominic Schoemaker - Stay Grounded
TTITLE9=John Campbelljohn - Take A Look Around
TTITLE10=Henrik Freischlader - Mournful Melody
EXTD=
EXTT0=
EXTT1=
EXTT2=
EXTT3=
EXTT4=
EXTT5=
EXTT6=
EXTT7=
EXTT8=
EXTT9=
EXTT10=
PLAYORDER=
